<svg xmlns="http://www.w3.org/2000/svg" enable-background="new 0 0 512 512" viewBox="0 0 512 512"><path fill="#837683" fill-rule="evenodd" d="M53.465,26.18h260.258c25.006,0,45.466,20.46,45.466,45.466v332.378c0,25.007-20.46,45.466-45.466,45.466
			H53.465c-25.007,0-45.466-20.46-45.466-45.466V71.646C7.999,46.64,28.458,26.18,53.465,26.18z" clip-rule="evenodd"/><path fill="#685e68" fill-rule="evenodd" d="M287.672,26.18h26.051c25.007,0,45.466,20.46,45.466,45.467v332.377c0,25.007-20.459,45.466-45.466,45.466
			h-26.051c25.006,0,45.466-20.459,45.466-45.466V71.647C333.138,46.64,312.679,26.18,287.672,26.18z" clip-rule="evenodd"/><path fill="#ffe177" fill-rule="evenodd" d="M68.621,91.44h229.947c5.757,0,10.452,4.695,10.452,10.452v41.025c0,5.757-4.695,10.452-10.452,10.452H68.621
			c-5.757,0-10.452-4.695-10.452-10.452v-41.025C58.169,96.135,62.864,91.44,68.621,91.44z" clip-rule="evenodd"/><path fill="#ffd064" fill-rule="evenodd" d="M295.994,91.44h2.573c5.757,0,10.452,4.695,10.452,10.452v41.025c0,5.757-4.695,10.452-10.452,10.452H68.621
			c-5.757,0-10.452-4.695-10.452-10.452v-2.573h227.373c5.757,0,10.452-4.695,10.452-10.452V91.44z" clip-rule="evenodd"/><path fill="#eceff1" fill-rule="evenodd" d="M78.224,203.147h39.065c5.757,0,10.452,4.695,10.452,10.452v13.588c0,5.757-4.695,10.452-10.452,10.452
			H78.224c-5.757,0-10.452-4.695-10.452-10.452v-13.588C67.772,207.842,72.467,203.147,78.224,203.147L78.224,203.147z
			 M249.9,349.738h39.065c5.757,0,10.452,4.695,10.452,10.452v13.588c0,5.757-4.695,10.452-10.452,10.452H249.9
			c-5.757,0-10.452-4.695-10.452-10.452V360.19C239.447,354.434,244.143,349.738,249.9,349.738L249.9,349.738z M164.061,349.738
			h39.065c5.757,0,10.452,4.695,10.452,10.452v13.588c0,5.757-4.695,10.452-10.452,10.452h-39.065
			c-5.757,0-10.452-4.695-10.452-10.452V360.19C153.61,354.434,158.305,349.738,164.061,349.738L164.061,349.738z M78.224,349.738
			h39.065c5.757,0,10.452,4.695,10.452,10.452v13.588c0,5.757-4.695,10.452-10.452,10.452H78.224
			c-5.757,0-10.452-4.695-10.452-10.452V360.19C67.772,354.434,72.467,349.738,78.224,349.738L78.224,349.738z M249.9,276.443
			h39.065c5.757,0,10.452,4.695,10.452,10.452v13.588c0,5.757-4.695,10.452-10.452,10.452H249.9
			c-5.757,0-10.452-4.695-10.452-10.452v-13.588C239.447,281.138,244.143,276.443,249.9,276.443L249.9,276.443z M164.061,276.443
			h39.065c5.757,0,10.452,4.695,10.452,10.452v13.588c0,5.757-4.695,10.452-10.452,10.452h-39.065
			c-5.757,0-10.452-4.695-10.452-10.452v-13.588C153.61,281.138,158.305,276.443,164.061,276.443L164.061,276.443z M78.224,276.443
			h39.065c5.757,0,10.452,4.695,10.452,10.452v13.588c0,5.757-4.695,10.452-10.452,10.452H78.224
			c-5.757,0-10.452-4.695-10.452-10.452v-13.588C67.772,281.138,72.467,276.443,78.224,276.443L78.224,276.443z M249.9,203.147
			h39.065c5.757,0,10.452,4.695,10.452,10.452v13.588c0,5.757-4.695,10.452-10.452,10.452H249.9
			c-5.757,0-10.452-4.695-10.452-10.452v-13.588C239.447,207.842,244.143,203.147,249.9,203.147L249.9,203.147z M164.061,203.147
			h39.065c5.757,0,10.452,4.695,10.452,10.452v13.588c0,5.757-4.695,10.452-10.452,10.452h-39.065
			c-5.757,0-10.452-4.695-10.452-10.452v-13.588C153.61,207.842,158.305,203.147,164.061,203.147z" clip-rule="evenodd"/><path fill="#d1d1d6" fill-rule="evenodd" d="M119.035,203.295c4.931,0.836,8.706,5.143,8.706,10.305v13.588c0,5.757-4.695,10.452-10.452,10.452H78.224
			c-4.573,0-8.476-2.963-9.887-7.068c0.568,0.096,1.151,0.147,1.746,0.147h39.065c5.757,0,10.452-4.695,10.452-10.452v-13.588
			C119.6,205.495,119.4,204.357,119.035,203.295L119.035,203.295z M290.711,349.886c4.931,0.835,8.706,5.143,8.706,10.305v13.588
			c0,5.757-4.695,10.452-10.452,10.452H249.9c-4.573,0-8.476-2.963-9.887-7.067c0.568,0.096,1.151,0.147,1.746,0.147h39.065
			c5.757,0,10.452-4.695,10.452-10.452V353.27C291.276,352.087,291.076,350.948,290.711,349.886L290.711,349.886z M204.873,349.886
			c4.93,0.835,8.705,5.143,8.705,10.305v13.588c0,5.757-4.695,10.452-10.452,10.452h-39.065c-4.573,0-8.475-2.963-9.887-7.067
			c0.568,0.096,1.151,0.147,1.746,0.147h39.065c5.757,0,10.452-4.695,10.452-10.452V353.27
			C205.438,352.087,205.238,350.948,204.873,349.886L204.873,349.886z M119.035,349.886c4.931,0.835,8.706,5.143,8.706,10.305
			v13.588c0,5.757-4.695,10.452-10.452,10.452H78.224c-4.573,0-8.476-2.963-9.887-7.067c0.568,0.096,1.151,0.147,1.746,0.147h39.065
			c5.757,0,10.452-4.695,10.452-10.452V353.27C119.6,352.087,119.4,350.948,119.035,349.886L119.035,349.886z M290.711,276.59
			c4.931,0.835,8.706,5.143,8.706,10.305v13.588c0,5.757-4.695,10.452-10.452,10.452H249.9c-4.573,0-8.476-2.963-9.887-7.067
			c0.568,0.096,1.151,0.147,1.746,0.147h39.065c5.757,0,10.452-4.695,10.452-10.452v-13.589
			C291.276,278.791,291.076,277.652,290.711,276.59L290.711,276.59z M204.873,276.59c4.93,0.835,8.705,5.143,8.705,10.305v13.588
			c0,5.757-4.695,10.452-10.452,10.452h-39.065c-4.573,0-8.475-2.962-9.887-7.067c0.568,0.096,1.151,0.147,1.746,0.147h39.065
			c5.757,0,10.452-4.695,10.452-10.452v-13.589C205.438,278.791,205.238,277.652,204.873,276.59L204.873,276.59z M119.035,276.59
			c4.931,0.835,8.706,5.143,8.706,10.305v13.588c0,5.757-4.695,10.452-10.452,10.452H78.224c-4.573,0-8.476-2.963-9.887-7.067
			c0.568,0.096,1.151,0.147,1.746,0.147h39.065c5.757,0,10.452-4.695,10.452-10.452v-13.589
			C119.6,278.791,119.4,277.652,119.035,276.59L119.035,276.59z M290.711,203.295c4.931,0.835,8.706,5.143,8.706,10.305v13.588
			c0,5.757-4.695,10.452-10.452,10.452H249.9c-4.573,0-8.476-2.963-9.887-7.068c0.568,0.096,1.151,0.147,1.746,0.147h39.065
			c5.757,0,10.452-4.695,10.452-10.452v-13.588C291.276,205.495,291.076,204.357,290.711,203.295L290.711,203.295z M204.873,203.295
			c4.93,0.835,8.705,5.143,8.705,10.305v13.588c0,5.757-4.695,10.452-10.452,10.452h-39.065c-4.573,0-8.475-2.963-9.887-7.068
			c0.568,0.096,1.151,0.147,1.746,0.147h39.065c5.757,0,10.452-4.695,10.452-10.452v-13.588
			C205.438,205.495,205.238,204.357,204.873,203.295z" clip-rule="evenodd"/><path fill="#ffd064" fill-rule="evenodd" d="M483.682,263.602c11.176,0,20.319,9.143,20.319,20.318v14.917c0,11.175-9.143,20.319-20.319,20.319
			c11.176,0,20.319,9.143,20.319,20.319v14.917c0,11.176-9.143,20.319-20.319,20.319c11.176,0,20.319,9.143,20.319,20.319v14.917
			c0,11.175-9.143,20.319-20.319,20.319c11.176,0,20.319,9.143,20.319,20.319v14.917c0,11.176-9.143,20.319-20.319,20.319H355.973
			c-11.175,0-20.318-9.143-20.318-20.319v-14.917c0-11.176,9.143-20.319,20.318-20.319c-11.175,0-20.318-9.143-20.318-20.319
			v-14.917c0-11.176,9.143-20.319,20.318-20.319c-11.175,0-20.318-9.143-20.318-20.319v-14.917c0-11.176,9.143-20.319,20.318-20.319
			c-11.175,0-20.318-9.143-20.318-20.319V283.92c0-11.175,9.143-20.318,20.318-20.318c-11.175,0-20.318-9.143-20.318-20.319v-14.917
			c0-11.176,9.143-20.319,20.318-20.319h127.709c11.176,0,20.319,9.143,20.319,20.319v14.917
			C504.001,254.459,494.858,263.602,483.682,263.602z" clip-rule="evenodd"/><path fill="#ffc338" fill-rule="evenodd" d="M483.682,263.602c11.176,0,20.319,9.143,20.319,20.318v14.917c0,11.175-9.143,20.319-20.319,20.319
			c11.176,0,20.319,9.143,20.319,20.319v14.917c0,11.176-9.143,20.319-20.319,20.319c11.176,0,20.319,9.143,20.319,20.319v14.917
			c0,11.175-9.143,20.319-20.319,20.319c11.176,0,20.319,9.143,20.319,20.319v14.917c0,11.176-9.143,20.319-20.319,20.319h-10
			c11.176,0,20.319-9.143,20.319-20.319v-14.917c0-11.176-9.143-20.319-20.319-20.319c11.176,0,20.319-9.143,20.319-20.319v-14.917
			c0-11.176-9.143-20.319-20.319-20.319c11.176,0,20.319-9.143,20.319-20.319v-14.917c0-11.176-9.143-20.319-20.319-20.319
			c11.176,0,20.319-9.143,20.319-20.319V283.92c0-11.175-9.143-20.318-20.319-20.318c11.176,0,20.319-9.143,20.319-20.319v-14.917
			c0-11.176-9.143-20.319-20.319-20.319h10c11.176,0,20.319,9.143,20.319,20.319v14.917
			C504.001,254.459,494.858,263.602,483.682,263.602z" clip-rule="evenodd"/><path fill="#ffe177" fill-rule="evenodd" d="M355.973,263.602h127.709c11.176,0,20.319-9.143,20.319-20.319v-14.917c0-11.176-9.143-20.319-20.319-20.319
			H355.973c-11.175,0-20.318,9.143-20.318,20.319v14.917C335.655,254.459,344.798,263.602,355.973,263.602L355.973,263.602z
			 M355.973,485.82h127.709c11.176,0,20.319-9.143,20.319-20.319v-14.917c0-11.176-9.143-20.319-20.319-20.319H355.973
			c-11.175,0-20.318,9.143-20.318,20.319v14.917C335.655,476.677,344.798,485.82,355.973,485.82L355.973,485.82z M355.973,374.711
			h127.709c11.176,0,20.319-9.143,20.319-20.319v-14.917c0-11.176-9.143-20.319-20.319-20.319H355.973
			c-11.175,0-20.318,9.143-20.318,20.319v14.917C335.655,365.568,344.798,374.711,355.973,374.711z" clip-rule="evenodd"/><path fill="#ffd064" fill-rule="evenodd" d="M473.682,263.602h10c11.176,0,20.319-9.143,20.319-20.319v-14.917c0-11.176-9.143-20.319-20.319-20.319h-10
			c11.176,0,20.319,9.143,20.319,20.319v14.917C494.001,254.459,484.857,263.602,473.682,263.602L473.682,263.602z M473.682,485.82
			h10c11.176,0,20.319-9.143,20.319-20.319v-14.917c0-11.176-9.143-20.319-20.319-20.319h-10c11.176,0,20.319,9.143,20.319,20.319
			v14.917C494.001,476.677,484.857,485.82,473.682,485.82L473.682,485.82z M473.682,374.711h10c11.176,0,20.319-9.143,20.319-20.319
			v-14.917c0-11.176-9.143-20.319-20.319-20.319h-10c11.176,0,20.319,9.143,20.319,20.319v14.917
			C494.001,365.568,484.857,374.711,473.682,374.711z" clip-rule="evenodd"/></svg>