<svg width="37" height="38" viewBox="0 0 37 38" fill="none" xmlns="http://www.w3.org/2000/svg">
<line x1="1.70725" y1="19.165" x2="19.7766" y2="1.09565" stroke="#131200" stroke-width="3"/>
<line x1="17.5607" y1="1.09565" x2="35.63" y2="19.165" stroke="#131200" stroke-width="3"/>
<line x1="2.76791" y1="18.7256" x2="7.76791" y2="18.7256" stroke="#131200" stroke-width="3"/>
<line x1="29.5693" y1="18.7256" x2="34.5693" y2="18.7256" stroke="#131200" stroke-width="3"/>
<line x1="9.26791" y1="17.2317" x2="9.26791" y2="32.2317" stroke="#131200" stroke-width="3"/>
<line x1="28.0998" y1="17.2295" x2="28.0998" y2="32.2295" stroke="#131200" stroke-width="3"/>
<path d="M17.7633 30.7999C16.9899 30.6399 16.3966 30.2732 15.9833 29.6999C15.5833 29.1265 15.3833 28.3932 15.3833 27.4999V26.5799H17.4633V27.6399C17.4633 28.4532 17.8433 28.8599 18.6033 28.8599C19.3633 28.8599 19.7433 28.4399 19.7433 27.5999C19.7433 27.0799 19.6099 26.6132 19.3433 26.1999C19.0766 25.7732 18.5833 25.2799 17.8633 24.7199C16.9699 24.0132 16.3433 23.3532 15.9833 22.7399C15.6233 22.1265 15.4433 21.4332 15.4433 20.6599C15.4433 19.7932 15.6366 19.0799 16.0233 18.5199C16.4233 17.9599 17.0033 17.5932 17.7633 17.4199V16.1999H19.5633V17.4199C20.3366 17.5799 20.9233 17.9465 21.3233 18.5199C21.7233 19.0799 21.9233 19.8065 21.9233 20.6999V21.0999H19.8433V20.5599C19.8433 19.7332 19.4766 19.3199 18.7433 19.3199C18.0099 19.3199 17.6433 19.7199 17.6433 20.5199C17.6433 20.9999 17.7766 21.4465 18.0433 21.8599C18.3099 22.2599 18.8033 22.7465 19.5233 23.3199C20.4166 24.0399 21.0433 24.7132 21.4033 25.3399C21.7633 25.9532 21.9433 26.6599 21.9433 27.4599C21.9433 28.3665 21.7366 29.1132 21.3233 29.6999C20.9233 30.2732 20.3366 30.6399 19.5633 30.7999V32.1999H17.7633V30.7999Z" fill="#131200"/>
</svg>
