<svg xmlns="http://www.w3.org/2000/svg" viewBox="0 0 48 48"><path fill="#3b3b3b" d="M10.284,4.942a2,2,0,0,0,1.169-1.093s1.263,1.965,5.836,1.2A4.335,4.335,0,0,0,12.907.75,4.259,4.259,0,0,0,8.616,4.335C8.683,4.931,9.468,5.2,10.284,4.942Z"/><path fill="#fcd3c4" d="M17.33,5.6a7.719,7.719,0,0,1-2.31,5.17c-.13.12-.27.24-.4.35a2.885,2.885,0,0,1-1.71.75,2.884,2.884,0,0,1-1.69-.73,2.99,2.99,0,0,1-.38-.34A7.647,7.647,0,0,1,8.48,5.6a6.331,6.331,0,0,1,.14-1.27c.06.6.85.87,1.66.61a2.008,2.008,0,0,0,1.17-1.09s1.27,1.96,5.84,1.2C17.3,5.23,17.33,5.41,17.33,5.6Z"/><path fill="#fcd3c4" d="M15.02,10.77v1.79s-.63,1.61-2.05,1.61-2.13-1.61-2.13-1.61V10.8a2.99,2.99,0,0,0,.38.34,2.884,2.884,0,0,0,1.69.73,2.885,2.885,0,0,0,1.71-.75C14.75,11.01,14.89,10.89,15.02,10.77Z"/><path fill="#fdc5b1" d="M15.02,10.77v.92a3.47,3.47,0,0,1-2.11.88,3.442,3.442,0,0,1-2.07-.84V10.8a2.99,2.99,0,0,0,.38.34,2.884,2.884,0,0,0,1.69.73,2.885,2.885,0,0,0,1.71-.75C14.75,11.01,14.89,10.89,15.02,10.77Z"/><path fill="none" d="M12.913,44.333h.014c0-.025-.007-.048-.007-.073C12.92,44.285,12.913,44.308,12.913,44.333Z"/><path fill="#3b3b3b" d="M7.94,46.32a2.945,2.945,0,0,0,2.06.85,2.912,2.912,0,0,0,2.913-2.837H7.1A2.948,2.948,0,0,0,7.94,46.32Z"/><polygon fill="#03a8b7" points="1.096 29.238 1.096 29.238 1.659 29.415 1.096 29.238"/><path fill="#3b3b3b" d="M13.77,46.32a2.916,2.916,0,0,0,4.973-1.987H12.927A2.9,2.9,0,0,0,13.77,46.32Z"/><path fill="#03a8b7" d="M24.74,29.24l-3.56,1.12-.05-.2-.22-.89-1.4-5.6-.25-1.02-.51-2.05h-.01v9.78l.01,5.45v8.43c0,.02-.01.05-.01.07H12.93c0-.02-.01-.05-.01-.07,0,.02-.01.05-.01.07H7.1c0-.02-.01-.05-.01-.07V20.6L4.65,30.36l-2.99-.95-.56-.17L3.94,15.07c.35-1.53,1.31-1.79,2.73-2.06l3.66-.4.51-.05a.031.031,0,0,0,.01.02,2.659,2.659,0,0,0,2.12,1.59c1.33,0,1.97-1.42,2.04-1.59a.031.031,0,0,0,.01-.02l.53.06,3.59.4c1.15.17,1.79.28,2.29,1a12.593,12.593,0,0,1,.49,1.24v.01c.02.05.03.1.05.16.04.12.15.63.3,1.39.22,1.01.52,2.47.83,4.07.14.66.27,1.35.41,2.03C23.98,25.33,24.45,27.76,24.74,29.24Z"/><path fill="#028d9a" d="M12.97,14.42a3.508,3.508,0,0,1-2.589-1.732l-.049-.073.508-.055a2.964,2.964,0,0,0,2.13,1.36,2.752,2.752,0,0,0,2.05-1.36l.525.059-.046.093A3.335,3.335,0,0,1,12.97,14.42Z"/><path fill="#fcd3c4" d="M24.742 29.235l-3.564 1.12.3 1.215a1.839 1.839 0 0 0 1.77 1.33 1.7 1.7 0 0 0 .44-.05 1.826 1.826 0 0 0 1.33-2.19S24.914 30.115 24.742 29.235zM1.1 29.238L.81 30.66a2.007 2.007 0 0 0-.05.42 1.829 1.829 0 0 0 3.59.49l.3-1.215-2.994-.94z"/><rect width=".5" height="12.54" x="12.677" y="31.793" fill="#028d9a"/><path fill="#028d9a" d="M7.09 20.6L7.3 19.064A14.631 14.631 0 0 1 7.359 21.5c-.088 3.718-.269 8.875-.269 8.875zM18.74 20.6l-.207-1.536A14.511 14.511 0 0 0 18.47 21.5c.088 3.718.27 8.875.27 8.875z"/><path fill="#fcd3c4" d="M46.11,31.12a1.5,1.5,0,0,1-1.74-.85l-3-9.21,2.08,15.37H28.34l.96-7.09v-.01l.08-.57.74-5.46.13-.99.17-1.25-.37,1.21-.3.97L27.6,30.27a1.5,1.5,0,0,1-1.74.85,1.474,1.474,0,0,1-.87-.6,1.453,1.453,0,0,1-.23-1.17.353.353,0,0,1,.03-.14l2.89-12.09a2.576,2.576,0,0,1,.29-.77,1.885,1.885,0,0,1,.73-.75,4.119,4.119,0,0,1,1.5-.54l.45-.07,1.78-.28,1.47-.23V12.9a3.182,3.182,0,0,0,2.06,1.15,3.283,3.283,0,0,0,2.12-1.21v1.65l1.35.26,2.06.4.26.05c1.45.31,2.22.49,2.55,1.92l2.88,12.09A1.5,1.5,0,0,1,46.11,31.12Z"/><polygon fill="#ff8c90" points="30.608 15.186 30.608 15.186 30.608 15.185 30.608 15.186"/><polygon fill="#ff8c90" points="41.583 14.752 41.583 14.753 41.583 14.753 41.583 14.752"/><path fill="#ea4867" d="M43.45,36.43H28.34l.96-7.09v-.01l.08-.57.74-5.46.13-.99.17-1.25.79-2.63-.56-3.44,1.78-.28,1.29,1.36a3.225,3.225,0,0,0,4.47-.01l1.24-1.31,2.06.4-.76,3.28.64,2.63Z"/><polygon fill="none" points="35.962 44.972 35.964 44.972 35.963 44.963 35.962 44.972"/><path fill="#3b3b3b" d="M33.753,47.173a2.21,2.21,0,0,0,2.209-2.2H31.544A2.21,2.21,0,0,0,33.753,47.173Z"/><path fill="#fcd3c4" d="M40.38,44.96v.01H31.54V36.43h8.82Z"/><path fill="#3b3b3b" d="M35.964,44.972a2.209,2.209,0,0,0,2.208,2.2h0a2.209,2.209,0,0,0,2.208-2.2Z"/><path fill="#fdc5b1" d="M38.08,12.84v.96a3.394,3.394,0,0,1-2.12.95,3.34,3.34,0,0,1-2.06-.9V12.9a3.182,3.182,0,0,0,2.06,1.15A3.283,3.283,0,0,0,38.08,12.84Z"/><polygon fill="#ffb1ab" points="36.212 44.972 35.964 44.972 35.712 44.972 35.712 36.431 36.212 36.431 36.212 44.972"/><path fill="#3b3b3b" d="M40.081,11.1v-3H31.845v3a1.484,1.484,0,0,1-1.059,1.563H41.14A1.484,1.484,0,0,1,40.081,11.1Z"/><path fill="#fcd3c4" d="M40.08,8.11a7.289,7.289,0,0,1-2,4.73,3.283,3.283,0,0,1-2.12,1.21A3.182,3.182,0,0,1,33.9,12.9a7.553,7.553,0,0,1-2.03-4.25c4.87.14,5.53-2.34,5.53-2.34A2.712,2.712,0,0,0,40.08,8.11Z"/><path fill="#3b3b3b" d="M37.4,6.31a2.718,2.718,0,0,0,2.683,1.8c0-2.908-1.844-4.591-4.118-4.591S31.844,5.2,31.844,8.111c0,.18.01.36.028.54C36.742,8.792,37.4,6.31,37.4,6.31Z"/><path fill="#028d9a" d="M29.31,28.53H29.3v.8l.08-.57ZM23.1,20.89a5.178,5.178,0,0,1-.99-2.88,4.086,4.086,0,0,1,.1-.88l-.01-.01c.02-.1.05-.2.07-.3-.15-.76-.26-1.27-.3-1.39-.02-.06-.03-.11-.05-.16a4.5,4.5,0,0,0-.7,1.66,5.8,5.8,0,0,0-.11,1.08A6.274,6.274,0,0,0,22.71,22l-2.06.23a4.847,4.847,0,0,0-1.39.42l.25,1.02a3.108,3.108,0,0,1,1.33-.46l2.67-.29C23.37,22.24,23.24,21.55,23.1,20.89Zm-2.19,8.38.22.89V28.53Zm-3.25,6.78a1.282,1.282,0,0,1-.97-1.24,1.551,1.551,0,0,1,.04-.29l.2-1,1.67-7.46.14-.61V23a2.391,2.391,0,0,0-.22.23,2.743,2.743,0,0,0-.57,1.2l-2,8.89-.2.99a2.255,2.255,0,0,0,1.67,2.71,2.075,2.075,0,0,0,.55.07,2.247,2.247,0,0,0,.78-.14V35.83A1.305,1.305,0,0,1,17.66,36.05Z"/><path fill="#3b3b3b" d="M23.373,17.55a1.409,1.409,0,0,0,.821-.767s.886,1.378,4.093.843a3.04,3.04,0,0,0-3.074-3.017A2.987,2.987,0,0,0,22.2,17.123C22.251,17.542,22.8,17.732,23.373,17.55Z"/><path fill="#fcd3c4" d="M28.316,18.011a5.415,5.415,0,0,1-1.62,3.626c-.092.085-.19.169-.281.246a2.023,2.023,0,0,1-1.2.526A2.022,2.022,0,0,1,24.03,21.9a2.093,2.093,0,0,1-.266-.238,5.365,5.365,0,0,1-1.656-3.648,4.452,4.452,0,0,1,.1-.891c.042.421.6.61,1.165.428a1.406,1.406,0,0,0,.82-.765s.891,1.375,4.1.842C28.3,17.751,28.316,17.878,28.316,18.011Z"/><path fill="#fdc5b1" d="M26.7,21.637v1.256s-.442,1.129-1.438,1.129-1.494-1.129-1.494-1.129V21.659a2.093,2.093,0,0,0,.266.238,2.022,2.022,0,0,0,1.186.512,2.023,2.023,0,0,0,1.2-.526C26.506,21.806,26.6,21.722,26.7,21.637Z"/><path fill="none" d="M25.217,45.18h.011c0-.018-.005-.034-.005-.051C25.223,45.146,25.218,45.162,25.217,45.18Z"/><path fill="#3b3b3b" d="M21.729,46.574a2.069,2.069,0,0,0,1.445.6,2.041,2.041,0,0,0,2.043-1.99H21.138A2.07,2.07,0,0,0,21.729,46.574Z"/><polygon fill="#03a8b7" points="16.928 33.521 16.928 33.521 17.324 33.645 16.928 33.521"/><path fill="#3b3b3b" d="M25.819,46.574a2.045,2.045,0,0,0,3.488-1.394H25.228A2.033,2.033,0,0,0,25.819,46.574Z"/><path fill="#ffb963" d="M31.571,24.906a7.812,7.812,0,0,0-.379-.989c-.351-.505-.8-.582-1.606-.7l-2.89-.323s-.442,1.129-1.438,1.129-1.494-1.129-1.494-1.129l-2.925.316c-1,.189-1.67.371-1.915,1.445l-2,8.867.4.124,2.1.66,1.709-5.772v16.6c0,.017.005.033.005.051h4.079c0-.018.006-.034.006-.051,0,.017,0,.033.005.051h4.079c0-.018.005-.034.005-.051l-.007-16.6h.007l1.7,5.772,2.5-.786C33.013,30.944,31.7,25.314,31.571,24.906Z"/><path fill="#fcd3c4" d="M33.515 33.519l-2.5.786.212.852a1.289 1.289 0 0 0 1.241.933 1.192 1.192 0 0 0 .309-.035 1.281 1.281 0 0 0 .933-1.536S33.636 34.136 33.515 33.519zM16.928 33.521l-.2 1a1.405 1.405 0 0 0-.035.294 1.283 1.283 0 0 0 2.518.344l.213-.852-2.1-.66z"/><rect width=".5" height="8.099" x="24.962" y="37.081" fill="#ff953f"/><path fill="#ff953f" d="M21.125 28.567l.207-1.536a14.643 14.643 0 0 1 .062 2.436c-.088 3.719-.269 8.875-.269 8.875zM29.31 28.567L29.1 27.031a14.643 14.643 0 0 0-.062 2.436c.088 3.719.269 8.875.269 8.875z"/><path fill="#eebcad" d="M29.31,28.53H29.3v.8l.08-.57Zm.39-6.31L27.73,22a6.416,6.416,0,0,0,1.59-3.99,1.87,1.87,0,0,0-.03-.34l-.01-.13a4.839,4.839,0,0,0-.58-1.94,1.885,1.885,0,0,0-.73.75,3.819,3.819,0,0,1,.32,1.28c0,.12.03.25.03.38a5.42,5.42,0,0,1-1.62,3.63v1.25l2.89.33c.05.01.11.01.16.02l.3-.97C29.94,22.25,29.82,22.24,29.7,22.22Z"/><path fill="#d2455e" d="M29.31,28.53H29.3v.8l.08-.57Zm5.38,5.8-.19-1c-.49-2.49-1.82-8.23-1.98-8.72a7.85,7.85,0,0,0-.43-1.13l-.03-.07-.05-.06a2.44,2.44,0,0,0-1.76-1.04l-.13.99a1.511,1.511,0,0,1,1.07.62,7.258,7.258,0,0,1,.38.99c.13.4,1.44,6.03,1.95,8.61.12.62.19,1,.19,1a1.272,1.272,0,0,1-.93,1.53,1.148,1.148,0,0,1-.31.04,1.284,1.284,0,0,1-1.24-.93l-.22-.86-1.63-5.54-.07-.23H29.3v7.9h1.01v-.87a2.214,2.214,0,0,0,.56.87h3.21A2.237,2.237,0,0,0,34.69,34.33Z"/><path fill="#ffb1ab" d="M34.08,36.43a2.233,2.233,0,0,1-1.05.59,1.952,1.952,0,0,1-.56.07,2.251,2.251,0,0,1-.93-.2v-.46Z"/></svg>