<svg xmlns="http://www.w3.org/2000/svg" xmlns:xlink="http://www.w3.org/1999/xlink" width="80" height="80" viewBox="0 0 80 80"><defs><linearGradient id="b" x1="906.952" x2="931.379" y1="515.915" y2="546.094" gradientTransform="translate(-2315.531 -349.837) scale(2.56309)" gradientUnits="userSpaceOnUse" xlink:href="#a"/><linearGradient id="a"><stop offset="0" stop-color="#ffd800"/><stop offset="1" stop-color="#ff6100"/></linearGradient></defs><g transform="translate(1 -971.862)"><rect width="80" height="80" x="-1" y="971.862" fill="url(#b)" rx="16.907" ry="16.907"/><path fill="#fff" style="line-height:normal;text-indent:0;text-align:start;text-decoration-line:none;text-decoration-style:solid;text-decoration-color:#000;text-transform:none;block-progression:tb;isolation:auto;mix-blend-mode:normal" d="m 53.04665,984.83982 a 0.50004997,0.50004997 0 0 0 -0.5,0.5 l 0,13.52142 c -2.543353,0.19232 -4.544922,2.32476 -4.544922,4.92976 l 0.0039,1.082 0,20.6114 0,1.2734 a 0.50005,0.50005 0 0 0 -0.0059,0.084 l 0,3 c 0,1.6533 1.346657,3 3,3 l 9,0 c 1.653343,0 3,-1.3467 3,-3 l 0,-1.9102 a 0.50004994,0.50004994 0 0 0 0,-0.033 l 0,-1.0566 0,-8.2051 0,-13.7656 -0.0039,-1.084 c -0.001,-2.5678 -1.947212,-4.68114 -4.439453,-4.92386 l 0,-13.52342 a 0.50004997,0.50004997 0 0 0 -0.5,-0.5 l -5.009766,0 z m 0.5,1 4.009766,0 0,1.19727 -4.009766,0 0,-1.19727 z m 0,2.19727 4.009766,0 0,11.30857 a 0.50004997,0.50004997 0 0 0 0.570312,0.502 c 2.153417,0.028 3.869141,1.76254 3.869141,3.94334 l 0.0039,1.082 0,13.7637 0,8.1699 a 0.50005,0.50005 0 0 0 0,0.035 l 0,1.0566 0,1.9434 c 0,1.1166 -0.883363,2 -2,2 l -9,0 c -1.116637,0 -2,-0.8834 -2,-2 l 0,-1.8594 a 0.50004994,0.50004994 0 0 0 0.0059,-0.084 l 0,-2.414 0,-20.6133 -0.0039,-1.084 c 0.0011,-2.1974 1.740688,-3.94734 3.917922,-3.94734 a 0.50004994,0.50004994 0 0 0 0.01563,0 0.50004997,0.50004997 0 0 0 0.611328,-0.4941 l 0,-11.30857 z m -15.994141,15.80471 c -0.821689,0 -1.5,0.6762 -1.5,1.498 l 0,0.8907 0,2.1738 0,4.8809 c -2.1313,-1.2395 -4.530124,-2.0645 -7.099609,-2.3379 0.219177,-0.6858 0.06071,-1.4661 -0.478516,-2.0039 -0.372708,-0.3716 -0.861315,-0.5663 -1.355468,-0.5821 l 0,0 c -0.494153,-0.016 -0.994613,0.1474 -1.390625,0.4942 -0.605676,0.5302 -0.808164,1.3574 -0.578125,2.0859 -9.051915,0.94 -16.1190852,8.5947 -16.1210942,17.8887 l -1.521485,0 a 0.50005,0.50005 0 1 0 0,1 l 1.683594,0 0.8886722,2.666 a 0.50028124,0.50028124 0 0 0 0.416015,0.3379 0.50005,0.50005 0 0 0 0.103516,0.01 l 32.785157,0 a 0.50005,0.50005 0 0 0 0.615234,-0.3477 l 0.888672,-2.666 1.65625,0 a 0.50005,0.50005 0 1 0 0,-1 l -1.515625,0 c -7.44e-4,-3.4376 -0.985318,-6.6407 -2.662109,-9.373 1.582927,-0.6959 2.685546,-2.272 2.685546,-4.1074 l 0,-6.9454 0,-2.1718 0,-0.8907 c 0,-0.8218 -0.67831,-1.498 -1.5,-1.498 l -6,0 z m 0,1 6,0 c 0.286311,0 0.5,0.214 0.5,0.498 l 0,0.8907 0,0.625 -7,0 0,-0.625 0,-0.8907 c 0,-0.284 0.21369,-0.498 0.5,-0.498 z m 18.001954,2 c -2.477466,0 -4.501954,1.956 -4.501954,4.3848 l 0,10.2304 c 0,2.4289 2.024489,4.3848 4.501954,4.3848 2.477463,0 4.501953,-1.9559 4.501953,-4.3848 l 0,-10.2304 c 0,-2.4288 -2.024491,-4.3848 -4.501953,-4.3848 z m 0,1 c 1.95638,0 3.501953,1.5087 3.501953,3.3848 l 0,10.2304 c 0,1.8761 -1.545574,3.3848 -3.501953,3.3848 -1.956382,0 -3.501954,-1.5087 -3.501954,-3.3848 l 0,-10.2304 c 0,-1.8761 1.545572,-3.3848 3.501954,-3.3848 z m -18.501954,0.014 7,0 0,0.5468 0,6.9453 c 0,1.4935 -0.92842,2.7424 -2.236328,3.2461 -1.282905,-1.8466 -2.895938,-3.4482 -4.763672,-4.7031 l 0,-5.4863 0,-0.5488 z m 2.5,0.9863 c -0.822504,0 -1.5,0.6775 -1.5,1.5 0,0.8225 0.677496,1.5 1.5,1.5 0.822505,0 1.5,-0.6775 1.5,-1.5 0,-0.8225 -0.677495,-1.5 -1.5,-1.5 z m -12.466796,0.5137 c 0.247989,0.01 0.493242,0.107 0.68164,0.2949 0.343056,0.3421 0.370918,0.8489 0.105469,1.2344 -0.281556,-0.013 -0.558975,-0.043 -0.84375,-0.043 -0.270244,0 -0.53343,0.027 -0.800781,0.039 -0.275903,-0.408 -0.221897,-0.9407 0.158203,-1.2734 0.200501,-0.1756 0.451229,-0.2596 0.699219,-0.2519 z m 12.466796,0.4863 c 0.282065,0 0.5,0.2179 0.5,0.5 0,0.282 -0.217935,0.5 -0.5,0.5 -0.282064,0 -0.5,-0.218 -0.5,-0.5 0,-0.2821 0.217936,-0.5 0.5,-0.5 z m -12.523437,2 c 5.886524,0 11.068357,2.9851 14.119141,7.5234 a 0.50013871,0.50013871 0 0 0 0.107421,0.1758 c 1.747972,2.6695 2.772655,5.8562 2.773438,9.2871 l -34,0 c 0.0021,-9.3874 7.606494,-16.9863 17,-16.9863 z m 27.441406,0 a 0.50005,0.50005 0 1 0 0,1 l 2.167969,0 a 0.50005,0.50005 0 1 0 0,-1 l -2.167969,0 z m -12.917969,1 c -0.822504,0 -1.5,0.6775 -1.5,1.5 0,0.8225 0.677496,1.5 1.5,1.5 0.822505,0 1.5,-0.6775 1.5,-1.5 0,-0.8225 -0.677495,-1.5 -1.5,-1.5 z m 0,1 c 0.282065,0 0.5,0.2179 0.5,0.5 0,0.282 -0.217935,0.5 -0.5,0.5 -0.282064,0 -0.5,-0.218 -0.5,-0.5 0,-0.2821 0.217936,-0.5 0.5,-0.5 z m -19.242187,0.9922 a 0.50004985,0.50004985 0 0 0 -0.132813,0.02 c -4.18121,1.1163 -7.528966,4.2392 -8.921875,8.3242 a 0.50029745,0.50029745 0 1 0 0.947266,0.3223 c 1.285213,-3.7692 4.371664,-6.649 8.232422,-7.6797 a 0.50004985,0.50004985 0 0 0 -0.125,-0.9863 z m 32.158203,5.0078 a 0.50005,0.50005 0 1 0 0,1 l 2.171875,0 a 0.50005,0.50005 0 1 0 0,-1 l -2.171875,0 z m -41.269531,5.0058 a 0.50004985,0.50004985 0 0 0 -0.466797,0.4278 c -0.110383,0.6811 -0.166016,1.3705 -0.166016,2.0605 a 0.50004985,0.50004985 0 1 0 1,0 c 0,-0.6364 0.05053,-1.2721 0.152344,-1.9004 a 0.50004985,0.50004985 0 0 0 -0.46875,-0.5878 0.50004985,0.50004985 0 0 0 -0.05078,0 z m -2.953126,4.9805 33.589845,0 -0.671876,2.0137 -32.246094,0 -0.671875,-2.0137 z" color="#000" font-family="sans-serif" font-weight="400" overflow="visible"/></g></svg>