<svg xmlns="http://www.w3.org/2000/svg" enable-background="new 0 0 47.5 47.5" viewBox="0 0 47.5 47.5"><defs><clipPath id="a" clipPathUnits="userSpaceOnUse"><path d="M 0,38 38,38 38,0 0,0 0,38 Z"/></clipPath></defs><g clip-path="url(#a)" transform="matrix(1.25 0 0 -1.25 0 47.5)"><path fill="#ffcc4d" d="M 0,0 C -0.138,4.657 -0.507,8 -0.942,8 -1.377,8 -1.746,4.657 -1.884,0 L 0,0 Z" transform="translate(6.942 4)"/><path fill="#a6d388" d="m 0,0 c 0,-5.045 -2.238,-6.577 -5,-6.577 -2.761,0 -5,1.532 -5,6.577 0,5.044 4,12.423 5,12.423 1,0 5,-7.379 5,-12.423" transform="translate(17 16.577)"/><path fill="#77b255" d="m 0,0 c 0,-5.574 -2.238,-7.269 -5,-7.269 -2.761,0 -5,1.695 -5,7.269 0,5.577 4,13.731 5,13.731 1,0 5,-8.154 5,-13.731" transform="translate(11 17.269)"/><path fill="#ffe8b6" d="M 0,0 13,13 26,0 26,-16 0,-16 0,0 Z" transform="translate(9 21)"/><path fill="#fff" d="m 23,5 -1,0 0,16 1,0 0,-16 z"/><path fill="#ffcc4d" d="M10 5L9 5 9 21 10 21 10 5zM34 5l1 0 0 16-1 0 0-16z"/><path fill="#66757f" d="M 0,0 C -0.256,0 -0.512,0.098 -0.707,0.293 L -13,12.586 -25.293,0.293 c -0.391,-0.391 -1.023,-0.391 -1.414,0 -0.391,0.391 -0.391,1.023 0,1.414 l 13,13 c 0.391,0.391 1.023,0.391 1.414,0 l 13,-13 C 1.098,1.316 1.098,0.684 0.707,0.293 0.512,0.098 0.256,0 0,0" transform="translate(35 20)"/><path fill="#66757f" d="m 0,0 c -0.256,0 -0.512,0.098 -0.707,0.293 -0.391,0.391 -0.391,1.023 0,1.414 l 6.5,6.5 c 0.391,0.391 1.023,0.391 1.414,0 0.391,-0.391 0.391,-1.023 0,-1.414 l -6.5,-6.5 C 0.512,0.098 0.256,0 0,0" transform="translate(22 20)"/><path fill="#c1694f" d="m 18,5 -4,0 0,6 4,0 0,-6 z"/><path fill="#55acee" d="m 30,7 -3,0 0,4 3,0 0,-4 z"/><path fill="#55acee" d="M26 7l2 0 0 4-2 0 0-4zM31 7l-2 0 0 4 2 0 0-4zM18 16l-4 0 0 4 4 0 0-4zM31 16l-5 0 0 4 5 0 0-4z"/><path fill="#5c913b" d="m 0,0 c 0,-1.104 -0.896,-2 -2,-2 l -32,0 c -1.104,0 -2,0.896 -2,2 0,1.104 0.896,2 2,2 L -2,2 C -0.896,2 0,1.104 0,0" transform="translate(37 3)"/><path fill="#fff" d="m 18,1 -4,0 0,4 4,0 0,-4 z"/></g></svg>