<svg width="37" height="38" viewBox="0 0 37 38" fill="none" xmlns="http://www.w3.org/2000/svg">
<line x1="35.2653" y1="18.4887" x2="17.2799" y2="36.6415" stroke="#131200" stroke-width="3"/>
<line x1="19.4958" y1="36.6312" x2="1.34298" y2="18.6458" stroke="#131200" stroke-width="3"/>
<line x1="34.2067" y1="18.9329" x2="29.2068" y2="18.9561" stroke="#131200" stroke-width="3"/>
<line x1="7.40561" y1="19.0571" x2="2.40567" y2="19.0802" stroke="#131200" stroke-width="3"/>
<line x1="27.7137" y1="20.457" x2="27.6443" y2="5.45712" stroke="#131200" stroke-width="3"/>
<line x1="8.88204" y1="20.5463" x2="8.81257" y2="5.54646" stroke="#131200" stroke-width="3"/>
<path d="M19.1556 6.92827C19.9297 7.08469 20.5247 7.4486 20.9407 8.02001C21.3433 8.59149 21.5467 9.32389 21.5509 10.2172L21.5551 11.1372L19.4752 11.1468L19.4702 10.0868C19.4665 9.27352 19.0846 8.86862 18.3246 8.87214C17.5646 8.87566 17.1866 9.29741 17.1905 10.1374C17.1929 10.6574 17.3284 11.1234 17.5969 11.5355C17.8656 11.961 18.3612 12.452 19.0838 13.0087C19.9804 13.7112 20.6101 14.3683 20.9729 14.9799C21.3358 15.5916 21.519 16.2841 21.5225 17.0574C21.5266 17.9241 21.3365 18.6383 20.9525 19.2001C20.5551 19.7619 19.9768 20.1313 19.2176 20.3081L19.2232 21.5281L17.4232 21.5364L17.4176 20.3165C16.6435 20.16 16.0552 19.7961 15.6525 19.2246C15.2499 18.6665 15.0466 17.9408 15.0424 17.0474L15.0406 16.6474L17.1206 16.6378L17.1231 17.1778C17.1269 18.0045 17.4955 18.4161 18.2288 18.4127C18.9621 18.4093 19.3269 18.0076 19.3232 17.2076C19.321 16.7276 19.1856 16.2816 18.917 15.8695C18.6485 15.4707 18.1529 14.9863 17.4303 14.4163C16.5336 13.7005 15.9038 13.0301 15.5409 12.4051C15.1781 11.7934 14.9948 11.0876 14.9911 10.2876C14.9869 9.38093 15.1901 8.63332 15.6007 8.04474C15.9981 7.46956 16.583 7.10018 17.3556 6.93661L17.3491 5.53662L19.1491 5.52828L19.1556 6.92827Z" fill="#131200"/>
</svg>
