<svg xmlns="http://www.w3.org/2000/svg" xmlns:xlink="http://www.w3.org/1999/xlink" width="48" height="48" viewBox="0 0 48 48"><defs><linearGradient id="b" x1="906.952" x2="931.379" y1="515.915" y2="546.094" gradientTransform="translate(-1938.719 132.35) scale(1.53785)" gradientUnits="userSpaceOnUse" xlink:href="#a"/><linearGradient id="a"><stop offset="0" stop-color="#ffd800"/><stop offset="1" stop-color="#ff6100"/></linearGradient></defs><g transform="translate(550 -925.37)"><rect width="48" height="48" x="-550" y="925.369" fill="url(#b)" rx="10.144" ry="10.144"/><path fill="#fff" style="line-height:normal;text-indent:0;text-align:start;text-decoration-line:none;text-decoration-style:solid;text-decoration-color:#000;text-transform:none;block-progression:tb;isolation:auto;mix-blend-mode:normal" d="m -527.5,935.81267 c -2.20718,0 -4,1.79173 -4,3.99805 l 0,2.55859 -1,0 -2.25,0 c -0.68385,0 -1.25,0.56616 -1.25,1.25 0,0.0434 0.0109,0.0842 0.0137,0.12696 -0.003,0.0412 -0.0137,0.081 -0.0137,0.12304 l 0,18 c 0,0.82236 0.67764,1.5 1.5,1.5 l 3,0 0,-0.006 c 0.0243,0.001 0.0477,0.006 0.0723,0.006 l 12.85547,0 c 0.84403,0 1.57226,-0.65848 1.57226,-1.5 l 0,-18 c 0,-0.84152 -0.72823,-1.5 -1.57227,-1.5 l -1.92773,0 0,-2.55859 c 0,-2.20632 -1.79282,-3.99805 -4,-3.99805 -0.53101,0 -1.03615,0.10865 -1.5,0.29688 -0.46384,-0.18823 -0.96899,-0.29688 -1.5,-0.29688 z m 0,1 c 0.11646,0 0.22704,0.0206 0.33984,0.0332 -0.81651,0.73224 -1.33984,1.78339 -1.33984,2.96485 l 0,2.55859 -2,0 0,-2.55859 c 0,-1.66929 1.32918,-2.99805 3,-2.99805 z m 3,0 c 1.67082,0 3,1.32876 3,2.99805 l 0,2.55859 -2,0 0,-2.55859 c 0,-1.18146 -0.52333,-2.23261 -1.33984,-2.96485 0.1128,-0.0126 0.22338,-0.0332 0.33984,-0.0332 z m -1.5,0.41016 c 0.89618,0.51551 1.5,1.46957 1.5,2.58789 l 0,2.55859 -3,0 0,-2.55859 c 0,-1.11832 0.60382,-2.07238 1.5,-2.58789 z m -8.5,6.14648 1.56445,0 a 0.50005,0.50005 0 0 0 -0.0644,0.25 c 0,0.56265 -0.43735,1 -1,1 -0.51931,0 -0.91608,-0.37912 -0.97656,-0.8789 0.055,-0.21702 0.23707,-0.3711 0.47656,-0.3711 z m 3.07227,0 2.92773,0 0,1.09375 c -0.57903,0.20849 -1,0.75942 -1,1.40625 0,0.82251 0.6775,1.5 1.5,1.5 0.8225,0 1.5,-0.67749 1.5,-1.5 0,-0.64683 -0.42097,-1.19776 -1,-1.40625 l 0,-1.09375 6,0 0,1.09375 c -0.57903,0.20849 -1,0.75942 -1,1.40625 0,0.82251 0.6775,1.5 1.5,1.5 0.8225,0 1.5,-0.67749 1.5,-1.5 0,-0.64683 -0.42097,-1.19776 -1,-1.40625 l 0,-1.09375 1.92773,0 c 0.34311,0 0.57227,0.23352 0.57227,0.5 l 0,18 c 0,0.26648 -0.22916,0.5 -0.57227,0.5 l -12.85546,0 c -0.34311,0 -0.57227,-0.23352 -0.57227,-0.5 l 0,-18 c 0,-0.26648 0.22916,-0.5 0.57227,-0.5 z M -535,945.33806 c 0.2959,0.17352 0.63427,0.28125 1,0.28125 0.36573,0 0.7041,-0.10773 1,-0.28125 l 0,16.53125 c 0,0.17706 0.0389,0.34358 0.0977,0.5 l -1.59766,0 c -0.28566,0 -0.5,-0.21436 -0.5,-0.5 l 0,-16.53125 z m 7,0.0312 c 0.28206,0 0.5,0.21794 0.5,0.5 0,0.28207 -0.21794,0.5 -0.5,0.5 -0.28206,0 -0.5,-0.21793 -0.5,-0.5 0,-0.28206 0.21794,-0.5 0.5,-0.5 z m 7,0 c 0.28206,0 0.5,0.21794 0.5,0.5 0,0.28207 -0.21794,0.5 -0.5,0.5 -0.28206,0 -0.5,-0.21793 -0.5,-0.5 0,-0.28206 0.21794,-0.5 0.5,-0.5 z m -4.00586,3.55664 0,0.008 a 0.50004997,0.50004997 0 0 0 -0.49219,0.50586 l 0,0.83203 -0.41015,-0.27733 a 0.50004997,0.50004997 0 0 0 -0.28321,-0.0937 0.50004997,0.50004997 0 0 0 -0.27734,0.91992 l 0.9707,0.6543 0,2.30469 -1.91015,-1.10742 -0.0918,-1.25977 a 0.50004997,0.50004997 0 0 0 -0.49219,-0.4707 0.50004997,0.50004997 0 0 0 -0.5039,0.54101 l 0.041,0.58399 -0.78907,-0.45899 a 0.50004997,0.50004997 0 0 0 -0.28711,-0.0684 0.50004997,0.50004997 0 0 0 -0.21484,0.93555 l 0.69922,0.40625 -0.35938,0.17383 a 0.50004997,0.50004997 0 1 0 0.43555,0.89844 l 0.9668,-0.4668 2.00976,1.16601 -1.8125,1.04883 -1.16406,-0.56445 a 0.50004997,0.50004997 0 0 0 -0.24023,-0.0566 0.50004997,0.50004997 0 0 0 -0.19532,0.95312 l 0.55665,0.26954 -0.89649,0.51953 a 0.50014849,0.50014849 0 1 0 0.50195,0.86523 l 0.77344,-0.44922 -0.0254,0.36524 a 0.50004997,0.50004997 0 1 0 0.99609,0.0723 l 0.0762,-1.04297 1.92578,-1.11718 0,2.0957 -0.9707,0.6543 a 0.50081991,0.50081991 0 0 0 0.56055,0.83007 l 0.41015,-0.27734 0,1.04297 a 0.50004997,0.50004997 0 1 0 1,0 l 0,-1.04297 0.41016,0.27734 a 0.50027213,0.50027213 0 0 0 0.55859,-0.83007 l -0.96875,-0.6543 0,-2.0957 1.92383,1.11523 0.0762,1.04492 a 0.50034352,0.50034352 0 1 0 0.99805,-0.0723 l -0.0254,-0.36524 0.77148,0.44727 a 0.500151,0.500151 0 1 0 0.50196,-0.86524 l -0.89453,-0.51757 0.55468,-0.26954 a 0.50004997,0.50004997 0 0 0 -0.20898,-0.95312 0.50004997,0.50004997 0 0 0 -0.22656,0.0547 l -1.16211,0.56445 -1.81055,-1.05078 2.00781,-1.16406 0.96485,0.46679 a 0.50004997,0.50004997 0 1 0 0.43554,-0.89843 l -0.35547,-0.17188 0.69532,-0.4043 a 0.50004997,0.50004997 0 0 0 -0.2793,-0.93554 0.50004997,0.50004997 0 0 0 -0.22266,0.0664 l -0.78711,0.45702 0.041,-0.58593 a 0.50004997,0.50004997 0 0 0 -0.52148,-0.54297 0.50004997,0.50004997 0 0 0 -0.47657,0.4707 l -0.0918,1.26563 -1.9082,1.10547 0,-2.3086 0.96875,-0.6543 a 0.50004997,0.50004997 0 1 0 -0.55859,-0.82812 l -0.41016,0.27734 0,-0.83203 a 0.50004997,0.50004997 0 0 0 -0.50781,-0.50586 z" color="#000" font-family="sans-serif" font-weight="400" overflow="visible"/></g></svg>