<svg xmlns="http://www.w3.org/2000/svg" xmlns:xlink="http://www.w3.org/1999/xlink" width="64" height="64" viewBox="0 0 64 64"><defs><linearGradient id="b" x1="992.183" x2="1019.298" y1="516.081" y2="545.959" gradientTransform="translate(-625.812 154.938) scale(.54252)" gradientUnits="userSpaceOnUse" xlink:href="#a"/><linearGradient id="a"><stop offset="0" stop-color="#ff1679"/><stop offset="1" stop-color="#ff770b"/></linearGradient></defs><g transform="translate(335 -1642.95) scale(3.77953)"><rect width="16.933" height="16.933" x="-88.635" y="434.697" fill="url(#b)" rx="3.579" ry="3.579"/><path style="line-height:normal;text-indent:0;text-align:start;text-decoration-line:none;text-decoration-style:solid;text-decoration-color:#000;text-transform:none;block-progression:tb;isolation:auto;mix-blend-mode:normal" fill="#fff" d="m -80.88034,438.999 c -0.35534,0 -0.641304,0.28647 -0.641304,0.64182 l 0,0.87644 0.427364,0 0,-0.70539 c 0,-0.20785 0.194838,-0.3751 0.439766,-0.38344 0.201513,0.008 0.223856,0.21239 0.629419,0.21239 0.405573,4.5e-4 0.427897,-0.20388 0.629419,-0.21239 0.244905,0.008 0.43925,0.17559 0.43925,0.38344 l 0,0.70539 0.427881,0 0,-0.87644 c 0,-0.35535 -0.285955,-0.64182 -0.641305,-0.64182 l -1.71049,0 z m -2.76779,1.78232 0,1.18959 c -8.46e-4,0.0726 -0.06015,0.13102 -0.132808,0.13075 l -1.150317,0 0,4.01164 1.150317,0 c 0.07347,-2.9e-4 0.133073,0.0593 0.132808,0.13281 l 0,1.15083 0.376722,0 0,-6.61562 -0.376722,0 z m 1.283126,0 0,1.36374 c 0.100187,-0.24204 0.338559,-0.41392 0.615467,-0.41392 0.366699,0 0.667659,0.30147 0.667659,0.66817 1.1e-5,0.3667 -0.30096,0.66611 -0.667659,0.66611 -0.276924,0 -0.515288,-0.17138 -0.615467,-0.41289 l 0,3.41219 0.855245,0.0512 c 0.09724,0.007 0.154137,0.11271 0.105937,0.19741 l -0.533301,0.92552 c -0.04821,0.0873 -0.172399,0.0915 -0.226859,0.008 l -0.201022,-0.30644 0,0.45682 4.439523,0 0,-3.66851 -0.09198,0.1602 c -0.04872,0.0845 -0.169446,0.0893 -0.224276,0.008 l -0.660425,-0.99839 c -0.05491,-0.0813 -0.0053,-0.19206 0.09198,-0.20516 0.0091,-0.001 0.01829,-0.001 0.02739,0 l 0.857312,0.0512 0,-1.96319 -0.382923,0 0,0.0315 c 0,0.18948 -0.156274,0.34571 -0.345715,0.34571 l -0.214457,0 c -0.189481,0 -0.345716,-0.15628 -0.345716,-0.34571 l 0,-0.0315 -1.646928,0 0,0.0315 c 0,0.18948 -0.156287,0.34571 -0.345715,0.34571 l -0.212907,0 c -0.189481,0 -0.345715,-0.15629 -0.345715,-0.34571 l 0,-0.0315 -0.599447,0 z m 0.863514,0 0,0.0315 c 0,0.0472 0.03477,0.0816 0.08217,0.0816 l 0.21239,0 c 0.04729,0 0.08217,-0.0342 0.08217,-0.0816 l 0,-0.0315 -0.376721,0 z m 2.550748,0 0,0.0315 c 0,0.0472 0.03425,0.0816 0.08165,0.0816 l 0.214974,0 c 0.0474,0 0.0801,-0.0342 0.0801,-0.0816 l 0,-0.0315 -0.376722,0 z m 1.931665,0 0,6.61562 0.376722,0 0,-1.15083 c -2.91e-4,-0.0727 0.05809,-0.13202 0.130741,-0.13281 l 1.150834,0 0,-4.01164 -1.150834,0 c -0.07185,-8.5e-4 -0.129947,-0.0589 -0.130741,-0.13075 l 0,-1.18959 -0.376722,0 z m -7.187675,0.0393 c -0.402791,0 -0.724503,0.31964 -0.724503,0.72243 l 0,0.29508 1.019576,0 0,-1.01751 -0.295073,0 z m 1.200961,0 0,6.57634 0.0801,0 0,-0.1819 0.214974,0 0,0.1819 0.08217,0 0,-6.57634 -0.08217,0 0,0.19533 -0.214974,0 0,-0.19533 -0.0801,0 z m 5.343859,0 0,6.57634 0.08217,0 0,-0.1819 0.214974,0 0,0.1819 0.0801,0 0,-6.57634 -0.0801,0 0,0.19533 -0.214974,0 0,-0.19533 -0.08217,0 z m 1.283126,0 0,1.01751 1.018026,0 0,-0.29508 c 0,-0.40277 -0.320172,-0.72243 -0.722953,-0.72243 l -0.295073,0 z m -8.042403,0.29455 c 0.117984,2.1e-4 0.213498,0.096 0.213424,0.21394 -2.09e-4,0.11782 -0.09564,0.21323 -0.213424,0.21343 -0.117982,8e-5 -0.213731,-0.0954 -0.21394,-0.21343 -7.4e-5,-0.11814 0.09575,-0.21401 0.21394,-0.21394 z m 8.551933,0 c 0.118182,-7e-5 0.214014,0.0958 0.213941,0.21394 -2.1e-4,0.11802 -0.09596,0.21351 -0.213941,0.21343 -0.11799,8e-5 -0.213731,-0.0954 -0.213941,-0.21343 -7.3e-5,-0.11814 0.09575,-0.21401 0.213941,-0.21394 z m -7.056417,0.11369 0.214974,0 0,0.21498 -0.214974,0 0,-0.21498 z m 5.345927,0 0.214974,0 0,0.21498 -0.214974,0 0,-0.21498 z m -5.345927,0.42737 0.214974,0 0,0.2129 -0.214974,0 0,-0.2129 z m 5.345927,0 0.214974,0 0,0.2129 -0.214974,0 0,-0.2129 z m -5.345927,0.42788 0.214974,0 0,0.2129 -0.214974,0 0,-0.2129 z m 5.345927,0 0.214974,0 0,0.2129 -0.214974,0 0,-0.2129 z m -5.345927,0.42788 0.214974,0 0,0.2129 -0.214974,0 0,-0.2129 z m 5.345927,0 0.214974,0 0,0.2129 -0.214974,0 0,-0.2129 z m -5.345927,0.42788 0.214974,0 0,0.2129 -0.214974,0 0,-0.2129 z m 5.345927,0 0.214974,0 0,0.2129 -0.214974,0 0,-0.2129 z m 1.068152,0.18138 0.855762,0 c 0.0685,-5.8e-4 0.126108,0.0512 0.132808,0.11937 1.64e-4,0.003 1.64e-4,0.007 0,0.0114 l 0,1.4981 c -8.46e-4,0.0726 -0.06015,0.13102 -0.132808,0.13075 l -0.855762,0 c -0.07185,-8.5e-4 -0.129947,-0.0589 -0.130741,-0.13075 l 0,-1.4981 c 8.46e-4,-0.0718 0.05889,-0.12995 0.130741,-0.13074 z m -6.414079,0.24598 0.214974,0 0,0.21291 -0.214974,0 0,-0.21291 z m 5.345927,0 0.214974,0 0,0.21291 -0.214974,0 0,-0.21291 z m -6.855396,0.1819 c 0.0044,-2.3e-4 0.0089,-2.3e-4 0.01344,0 l 0.855762,0 c 0.07266,-2.9e-4 0.132014,0.058 0.132808,0.13074 l 0,0.85577 c 2.91e-4,0.0735 -0.05935,0.13306 -0.132808,0.1328 l -0.855762,0 c -0.07346,3e-4 -0.133073,-0.0593 -0.132808,-0.1328 l 0,-0.85577 c 4.76e-4,-0.0677 0.05199,-0.12374 0.119372,-0.13074 z m 1.509469,0.24598 0.214974,0 0,0.21291 -0.214974,0 0,-0.21291 z m 5.345927,0 0.214974,0 0,0.21291 -0.214974,0 0,-0.21291 z m -5.345927,0.42788 0.214974,0 0,0.21291 -0.214974,0 0,-0.21291 z m 5.345927,0 0.214974,0 0,0.21291 -0.214974,0 0,-0.21291 z m -2.355929,0.18087 c 0.02228,2.9e-4 0.04414,0.006 0.06356,0.017 l 1.297078,0.7488 c 0.06254,0.037 0.08354,0.11755 0.04703,0.18035 l -0.427881,0.74104 c -0.0361,0.0632 -0.116444,0.0853 -0.179834,0.0496 l -1.297079,-0.74931 c -0.06256,-0.037 -0.08355,-0.11755 -0.04703,-0.18035 l 0.42788,-0.74104 c 0.02393,-0.0414 0.0684,-0.0667 0.116272,-0.0661 z m -2.989998,0.24701 0.214974,0 0,0.21239 -0.214974,0 0,-0.21239 z m 5.345927,0 0.214974,0 0,0.21239 -0.214974,0 0,-0.21239 z m -5.345927,0.4253 0.214974,0 0,0.21498 -0.214974,0 0,-0.21498 z m 5.345927,0 0.214974,0 0,0.21498 -0.214974,0 0,-0.21498 z m -5.345927,0.42788 0.214974,0 0,0.21498 -0.214974,0 0,-0.21498 z m 5.345927,0 0.214974,0 0,0.21498 -0.214974,0 0,-0.21498 z m -5.345927,0.42788 0.214974,0 0,0.21498 -0.214974,0 0,-0.21498 z m 5.345927,0 0.214974,0 0,0.21498 -0.214974,0 0,-0.21498 z m -5.345927,0.42788 0.214974,0 0,0.21446 -0.214974,0 0,-0.21446 z m 5.345927,0 0.214974,0 0,0.21446 -0.214974,0 0,-0.21446 z m -7.351489,0.0191 0,0.29146 c 0,0.35505 0.246492,0.64468 0.577742,0.71158 0.04735,0.01 0.09641,0.015 0.146761,0.015 l 0.295073,0 0,-1.01803 -1.019576,0 z m 8.552449,0 0,1.01803 0.295073,0 c 0.4024,0 0.722953,-0.3208 0.722953,-0.72657 l 0,-0.29146 -1.018026,0 z m -8.042403,0.29508 c 0.117984,2.1e-4 0.213498,0.096 0.213424,0.21394 -2.09e-4,0.11782 -0.09564,0.21321 -0.213424,0.21342 -0.117992,8e-5 -0.213731,-0.0954 -0.21394,-0.21342 -7.4e-5,-0.11814 0.09575,-0.21402 0.21394,-0.21394 z m 8.551933,0 c 0.118182,-8e-5 0.214014,0.0958 0.213941,0.21394 -2.1e-4,0.11802 -0.09595,0.2135 -0.213941,0.21342 -0.11799,8e-5 -0.213731,-0.0954 -0.213941,-0.21342 -7.3e-5,-0.11814 0.09575,-0.21402 0.213941,-0.21394 z m -7.056417,0.11317 0.214974,0 0,0.21497 -0.214974,0 0,-0.21497 z m 5.345927,0 0.214974,0 0,0.21497 -0.214974,0 0,-0.21497 z" color="#000" font-family="sans-serif" font-weight="400" overflow="visible"/></g></svg>